G04 #@! TF.GenerationSoftware,KiCad,Pcbnew,7.0.9*
G04 #@! TF.CreationDate,2024-02-27T14:15:26+02:00*
G04 #@! TF.ProjectId,volthub7,766f6c74-6875-4623-972e-6b696361645f,rev?*
G04 #@! TF.SameCoordinates,Original*
G04 #@! TF.FileFunction,Soldermask,Bot*
G04 #@! TF.FilePolarity,Negative*
%FSLAX46Y46*%
G04 Gerber Fmt 4.6, Leading zero omitted, Abs format (unit mm)*
G04 Created by KiCad (PCBNEW 7.0.9) date 2024-02-27 14:15:26*
%MOMM*%
%LPD*%
G01*
G04 APERTURE LIST*
G04 Aperture macros list*
%AMRoundRect*
0 Rectangle with rounded corners*
0 $1 Rounding radius*
0 $2 $3 $4 $5 $6 $7 $8 $9 X,Y pos of 4 corners*
0 Add a 4 corners polygon primitive as box body*
4,1,4,$2,$3,$4,$5,$6,$7,$8,$9,$2,$3,0*
0 Add four circle primitives for the rounded corners*
1,1,$1+$1,$2,$3*
1,1,$1+$1,$4,$5*
1,1,$1+$1,$6,$7*
1,1,$1+$1,$8,$9*
0 Add four rect primitives between the rounded corners*
20,1,$1+$1,$2,$3,$4,$5,0*
20,1,$1+$1,$4,$5,$6,$7,0*
20,1,$1+$1,$6,$7,$8,$9,0*
20,1,$1+$1,$8,$9,$2,$3,0*%
G04 Aperture macros list end*
%ADD10C,6.400000*%
%ADD11C,3.200000*%
%ADD12C,1.524000*%
%ADD13O,1.600000X3.400000*%
%ADD14O,2.000000X1.500000*%
%ADD15C,2.000000*%
%ADD16R,2.500000X2.500000*%
%ADD17C,2.500000*%
%ADD18R,1.700000X1.700000*%
%ADD19O,1.700000X1.700000*%
%ADD20R,1.600000X1.600000*%
%ADD21C,1.600000*%
%ADD22C,4.000000*%
%ADD23RoundRect,0.250000X-0.350000X-0.350000X0.350000X-0.350000X0.350000X0.350000X-0.350000X0.350000X0*%
%ADD24C,1.200000*%
%ADD25C,0.650000*%
%ADD26O,1.000000X2.100000*%
%ADD27O,1.000000X1.600000*%
G04 APERTURE END LIST*
D10*
G04 #@! TO.C,H11*
X144262262Y-26750000D03*
G04 #@! TD*
G04 #@! TO.C,H10*
X167262262Y-26750000D03*
G04 #@! TD*
G04 #@! TO.C,H8*
X144262262Y-84750000D03*
G04 #@! TD*
D11*
G04 #@! TO.C,H3*
X169612262Y-93700000D03*
G04 #@! TD*
D12*
G04 #@! TO.C,J5*
X49945595Y-109950000D03*
X52445595Y-109950000D03*
X54445595Y-109950000D03*
X56945595Y-109950000D03*
D13*
X46620595Y-112450000D03*
X60270595Y-112450000D03*
G04 #@! TD*
D14*
G04 #@! TO.C,J13*
X65112262Y-22700000D03*
D15*
X65112262Y-27100000D03*
G04 #@! TD*
D12*
G04 #@! TO.C,J8*
X116945594Y-109950000D03*
X119445594Y-109950000D03*
X121445594Y-109950000D03*
X123945594Y-109950000D03*
D13*
X113620594Y-112450000D03*
X127270594Y-112450000D03*
G04 #@! TD*
D15*
G04 #@! TO.C,TP1*
X168862262Y-48000000D03*
G04 #@! TD*
D16*
G04 #@! TO.C,J12*
X85567262Y-26700000D03*
D17*
X90647262Y-26700000D03*
G04 #@! TD*
D18*
G04 #@! TO.C,JP4*
X69292262Y-40230000D03*
D19*
X69292262Y-42770000D03*
G04 #@! TD*
D15*
G04 #@! TO.C,TP3*
X164362262Y-34550000D03*
G04 #@! TD*
D11*
G04 #@! TO.C,H7*
X112812262Y-65400000D03*
G04 #@! TD*
D12*
G04 #@! TO.C,J10*
X161612262Y-109850000D03*
X164112262Y-109850000D03*
X166112262Y-109850000D03*
X168612262Y-109850000D03*
D13*
X158287262Y-112350000D03*
X171937262Y-112350000D03*
G04 #@! TD*
D10*
G04 #@! TO.C,H9*
X167262262Y-84750000D03*
G04 #@! TD*
D18*
G04 #@! TO.C,JP2*
X59132262Y-40230000D03*
D19*
X59132262Y-42770000D03*
G04 #@! TD*
D20*
G04 #@! TO.C,J1*
X122542262Y-34942500D03*
D21*
X125042262Y-34942500D03*
X125042262Y-32942500D03*
X122542262Y-32942500D03*
D22*
X117792262Y-30082500D03*
X129792262Y-30082500D03*
G04 #@! TD*
D23*
G04 #@! TO.C,J2*
X79112262Y-88200000D03*
D24*
X79112262Y-90200000D03*
X81112262Y-88200000D03*
X81112262Y-90200000D03*
X83112262Y-88200000D03*
X83112262Y-90200000D03*
X85112262Y-88200000D03*
X85112262Y-90200000D03*
X87112262Y-88200000D03*
X87112262Y-90200000D03*
X89112262Y-88200000D03*
X89112262Y-90200000D03*
X91112262Y-88200000D03*
X91112262Y-90200000D03*
X93112262Y-88200000D03*
X93112262Y-90200000D03*
X95112262Y-88200000D03*
X95112262Y-90200000D03*
X97112262Y-88200000D03*
X97112262Y-90200000D03*
X99112262Y-88200000D03*
X99112262Y-90200000D03*
X101112262Y-88200000D03*
X101112262Y-90200000D03*
X103112262Y-88200000D03*
X103112262Y-90200000D03*
X105112262Y-88200000D03*
X105112262Y-90200000D03*
X107112262Y-88200000D03*
X107112262Y-90200000D03*
X109112262Y-88200000D03*
X109112262Y-90200000D03*
X111112262Y-88200000D03*
X111112262Y-90200000D03*
X113112262Y-88200000D03*
X113112262Y-90200000D03*
X115112262Y-88200000D03*
X115112262Y-90200000D03*
X117112262Y-88200000D03*
X117112262Y-90200000D03*
G04 #@! TD*
D11*
G04 #@! TO.C,H2*
X160112262Y-24200000D03*
G04 #@! TD*
G04 #@! TO.C,H5*
X107112262Y-102700000D03*
G04 #@! TD*
G04 #@! TO.C,H1*
X26612262Y-24200000D03*
G04 #@! TD*
D12*
G04 #@! TO.C,J4*
X27612262Y-109950000D03*
X30112262Y-109950000D03*
X32112262Y-109950000D03*
X34612262Y-109950000D03*
D13*
X24287262Y-112450000D03*
X37937262Y-112450000D03*
G04 #@! TD*
D15*
G04 #@! TO.C,TP2*
X169062262Y-45850000D03*
G04 #@! TD*
D18*
G04 #@! TO.C,JP3*
X64212262Y-40230000D03*
D19*
X64212262Y-42770000D03*
G04 #@! TD*
D25*
G04 #@! TO.C,J3*
X126682262Y-25755000D03*
X120902262Y-25755000D03*
D26*
X128112262Y-26285000D03*
D27*
X128112262Y-22105000D03*
D26*
X119472262Y-26285000D03*
D27*
X119472262Y-22105000D03*
G04 #@! TD*
D11*
G04 #@! TO.C,H4*
X26612262Y-93700000D03*
G04 #@! TD*
D12*
G04 #@! TO.C,J7*
X94612261Y-109950000D03*
X97112261Y-109950000D03*
X99112261Y-109950000D03*
X101612261Y-109950000D03*
D13*
X91287261Y-112450000D03*
X104937261Y-112450000D03*
G04 #@! TD*
D18*
G04 #@! TO.C,U2*
X145538750Y-79868750D03*
D19*
X142998750Y-79868750D03*
X145538750Y-77328750D03*
X142998750Y-77328750D03*
X145538750Y-74788750D03*
X142998750Y-74788750D03*
X145538750Y-72248750D03*
X142998750Y-72248750D03*
X145538750Y-69708750D03*
X142998750Y-69708750D03*
X145538750Y-67168750D03*
X142998750Y-67168750D03*
X145538750Y-64628750D03*
X142998750Y-64628750D03*
X145538750Y-62088750D03*
X142998750Y-62088750D03*
X145538750Y-59548750D03*
X142998750Y-59548750D03*
X145538750Y-57008750D03*
X142998750Y-57008750D03*
X145538750Y-54468750D03*
X142998750Y-54468750D03*
X145538750Y-51928750D03*
X142998750Y-51928750D03*
X145538750Y-49388750D03*
X142998750Y-49388750D03*
X145538750Y-46848750D03*
X142998750Y-46848750D03*
X145538750Y-44308750D03*
X142998750Y-44308750D03*
X145538750Y-41768750D03*
X142998750Y-41768750D03*
X145538750Y-39228750D03*
X142998750Y-39228750D03*
X145538750Y-36688750D03*
X142998750Y-36688750D03*
X145538750Y-34148750D03*
X142998750Y-34148750D03*
X145538750Y-31608750D03*
X142998750Y-31608750D03*
G04 #@! TD*
D12*
G04 #@! TO.C,J6*
X72278928Y-109950000D03*
X74778928Y-109950000D03*
X76778928Y-109950000D03*
X79278928Y-109950000D03*
D13*
X68953928Y-112450000D03*
X82603928Y-112450000D03*
G04 #@! TD*
D11*
G04 #@! TO.C,H6*
X107112262Y-24200000D03*
G04 #@! TD*
D15*
G04 #@! TO.C,TP4*
X168562262Y-40500000D03*
G04 #@! TD*
D25*
G04 #@! TO.C,J11*
X45002262Y-25800000D03*
X39222262Y-25800000D03*
D26*
X46432262Y-26330000D03*
D27*
X46432262Y-22150000D03*
D26*
X37792262Y-26330000D03*
D27*
X37792262Y-22150000D03*
G04 #@! TD*
D12*
G04 #@! TO.C,J9*
X139278927Y-109950000D03*
X141778927Y-109950000D03*
X143778927Y-109950000D03*
X146278927Y-109950000D03*
D13*
X135953927Y-112450000D03*
X149603927Y-112450000D03*
G04 #@! TD*
M02*
