M48
; DRILL file {KiCad 7.0.9} date Tue Feb 27 14:15:28 2024
; FORMAT={-:-/ absolute / metric / decimal}
; #@! TF.CreationDate,2024-02-27T14:15:28+02:00
; #@! TF.GenerationSoftware,Kicad,Pcbnew,7.0.9
; #@! TF.FileFunction,Plated,1,4,PTH
FMAT,2
METRIC
; #@! TA.AperFunction,Plated,PTH,ViaDrill
T1C0.250
; #@! TA.AperFunction,Plated,PTH,ViaDrill
T2C0.300
; #@! TA.AperFunction,Plated,PTH,ComponentDrill
T3C0.600
; #@! TA.AperFunction,Plated,PTH,ComponentDrill
T4C0.750
; #@! TA.AperFunction,Plated,PTH,ComponentDrill
T5C0.850
; #@! TA.AperFunction,Plated,PTH,ComponentDrill
T6C0.900
; #@! TA.AperFunction,Plated,PTH,ComponentDrill
T7C0.950
; #@! TA.AperFunction,Plated,PTH,ComponentDrill
T8C1.000
; #@! TA.AperFunction,Plated,PTH,ComponentDrill
T9C1.300
; #@! TA.AperFunction,Plated,PTH,ComponentDrill
T10C2.300
; #@! TA.AperFunction,Plated,PTH,ComponentDrill
T11C4.200
%
G90
G05
T1
X80.112Y-79.7
X83.012Y-72.15
X83.012Y-72.85
X85.012Y-72.7
X85.812Y-72.9
X100.162Y-74.05
X111.112Y-37.45
X111.112Y-39.2
X117.862Y-40.45
X119.212Y-37.5
X119.312Y-35.8
X120.412Y-28.45
X120.462Y-29.05
X120.462Y-29.65
X121.062Y-29.2
X121.112Y-29.8
X121.562Y-28.4
X122.062Y-28.9
X122.412Y-23.5
X122.412Y-29.85
X122.662Y-29.2
X122.912Y-37.7
X122.912Y-38.9
X123.062Y-29.85
X123.112Y-39.9
X123.212Y-36.8
X124.362Y-40.45
X125.012Y-25.0
X125.612Y-28.5
X125.912Y-29.05
X126.212Y-28.5
X126.262Y-30.1
X126.962Y-29.75
X127.162Y-29.05
X127.212Y-28.4
X170.462Y-47.05
T2
X24.612Y-28.7
X24.612Y-61.2
X24.862Y-38.2
X24.862Y-43.2
X25.612Y-70.2
X25.612Y-85.7
X26.362Y-48.2
X26.362Y-53.2
X26.362Y-58.45
X26.362Y-77.2
X26.362Y-78.7
X26.512Y-97.8
X27.212Y-97.8
X27.912Y-97.8
X28.612Y-97.8
X30.612Y-51.95
X30.612Y-56.95
X31.112Y-118.2
X32.012Y-76.0
X32.012Y-78.9
X33.112Y-99.3
X33.612Y-89.2
X33.712Y-70.2
X33.862Y-51.95
X33.862Y-56.95
X35.112Y-22.2
X35.112Y-43.2
X37.112Y-100.2
X38.512Y-28.5
X38.512Y-29.2
X38.612Y-66.2
X38.662Y-77.763
X39.212Y-28.5
X39.212Y-29.2
X39.612Y-33.95
X39.662Y-82.263
X40.212Y-62.0
X40.212Y-65.9
X41.112Y-56.45
X41.112Y-57.2
X41.112Y-57.95
X41.812Y-115.1
X41.862Y-119.2
X42.112Y-23.2
X42.162Y-77.763
X42.362Y-52.45
X42.362Y-53.2
X42.362Y-53.95
X42.362Y-55.7
X42.362Y-58.7
X42.362Y-105.6
X42.712Y-115.8
X43.012Y-105.0
X43.112Y-51.95
X43.112Y-52.7
X43.112Y-53.45
X43.112Y-55.7
X43.112Y-58.7
X43.162Y-82.263
X43.362Y-102.0
X43.612Y-45.2
X43.612Y-46.2
X43.612Y-47.2
X43.612Y-48.2
X43.612Y-105.6
X43.712Y-116.4
X43.862Y-55.7
X43.862Y-58.7
X44.362Y-45.7
X44.362Y-46.7
X44.362Y-47.7
X44.362Y-48.7
X44.612Y-55.7
X44.612Y-58.7
X44.862Y-44.95
X44.912Y-116.9
X45.112Y-33.95
X45.362Y-45.7
X45.612Y-89.2
X45.662Y-77.763
X45.862Y-44.95
X45.912Y-28.3
X46.362Y-45.7
X46.612Y-28.3
X46.612Y-29.0
X46.662Y-82.013
X46.862Y-44.95
X47.362Y-45.7
X47.612Y-55.7
X47.612Y-58.7
X47.862Y-44.95
X48.362Y-45.7
X48.362Y-46.7
X48.362Y-47.7
X48.362Y-48.7
X48.362Y-55.7
X48.362Y-58.7
X48.512Y-97.8
X48.612Y-79.2
X49.112Y-29.2
X49.112Y-45.2
X49.112Y-46.2
X49.112Y-47.2
X49.112Y-48.2
X49.112Y-55.7
X49.112Y-58.7
X49.212Y-97.8
X49.812Y-81.8
X49.862Y-55.7
X49.862Y-58.7
X49.912Y-97.8
X50.612Y-55.7
X50.612Y-58.7
X50.612Y-97.8
X50.912Y-81.2
X51.362Y-55.7
X51.362Y-58.7
X51.612Y-29.2
X52.312Y-72.3
X53.612Y-118.7
X55.112Y-99.1
X55.612Y-38.2
X56.862Y-51.7
X56.862Y-52.45
X57.112Y-22.45
X57.112Y-28.7
X57.612Y-51.7
X57.612Y-52.45
X57.612Y-78.2
X58.112Y-56.95
X58.112Y-57.7
X58.112Y-89.2
X58.362Y-51.7
X58.362Y-52.45
X58.862Y-56.95
X58.862Y-57.7
X59.112Y-51.7
X59.112Y-52.45
X59.362Y-60.7
X59.612Y-24.45
X59.612Y-26.7
X59.612Y-30.45
X59.612Y-56.95
X59.612Y-57.7
X59.862Y-51.7
X59.862Y-52.45
X59.912Y-72.1
X59.912Y-73.4
X60.312Y-64.4
X60.362Y-56.95
X60.362Y-57.7
X60.612Y-48.7
X60.612Y-49.45
X60.612Y-50.2
X60.612Y-50.95
X60.612Y-51.7
X60.612Y-52.45
X61.612Y-41.2
X61.862Y-22.7
X61.862Y-28.7
X61.912Y-72.1
X61.912Y-73.4
X62.612Y-62.2
X63.612Y-98.2
X63.912Y-72.1
X63.912Y-74.2
X64.362Y-119.2
X64.612Y-89.7
X64.862Y-56.45
X64.862Y-57.2
X64.862Y-57.95
X65.612Y-56.45
X65.612Y-57.2
X65.612Y-57.95
X65.862Y-61.95
X65.912Y-72.1
X66.362Y-56.45
X66.362Y-57.2
X66.362Y-57.95
X66.612Y-40.7
X67.612Y-50.2
X67.912Y-72.1
X67.912Y-75.0
X69.812Y-72.1
X70.112Y-79.7
X70.612Y-47.8
X71.012Y-97.7
X71.712Y-97.7
X71.912Y-72.1
X72.412Y-75.8
X72.412Y-97.7
X72.912Y-47.9
X72.912Y-78.3
X73.112Y-97.7
X73.912Y-72.1
X74.112Y-80.45
X75.612Y-62.2
X75.612Y-118.7
X76.112Y-89.7
X76.212Y-66.0
X76.362Y-48.95
X76.512Y-100.5
X78.112Y-22.2
X78.412Y-47.8
X78.462Y-77.95
X78.688Y-79.95
X80.012Y-73.0
X80.012Y-74.2
X82.862Y-51.7
X83.012Y-74.325
X83.212Y-68.1
X83.212Y-70.9
X83.212Y-75.9
X83.212Y-77.049
X83.212Y-78.7
X83.212Y-80.3
X83.612Y-98.7
X83.812Y-62.8
X85.012Y-62.8
X85.112Y-49.2
X85.112Y-50.45
X85.112Y-51.7
X85.112Y-52.95
X85.112Y-61.6
X85.112Y-64.2
X85.612Y-59.2
X85.712Y-60.7
X86.212Y-64.4
X86.512Y-105.6
X86.512Y-117.3
X86.612Y-119.2
X87.112Y-80.3
X87.312Y-117.7
X87.362Y-105.7
X87.412Y-64.3
X87.712Y-105.0
X88.112Y-98.7
X88.112Y-102.0
X88.112Y-118.2
X88.362Y-45.95
X88.912Y-60.6
X89.012Y-118.7
X89.112Y-57.2
X89.212Y-68.4
X89.212Y-70.9
X89.362Y-47.2
X89.812Y-67.2
X90.112Y-43.2
X90.612Y-79.8
X90.812Y-73.9
X91.012Y-56.3
X91.112Y-64.45
X91.812Y-67.3
X91.912Y-60.6
X92.312Y-64.5
X92.512Y-70.6
X93.212Y-64.5
X93.312Y-73.9
X93.512Y-97.8
X93.612Y-54.45
X93.612Y-79.8
X94.212Y-97.8
X94.612Y-59.6
X94.812Y-74.0
X94.912Y-97.8
X95.012Y-54.4
X95.025Y-75.987
X95.612Y-57.2
X95.612Y-97.8
X95.712Y-78.6
X95.912Y-73.4
X96.412Y-76.5
X96.712Y-62.9
X97.112Y-63.6
X97.612Y-62.8
X97.912Y-61.9
X98.012Y-50.3
X98.112Y-119.7
X98.512Y-69.2
X98.712Y-75.9
X98.712Y-77.4
X98.812Y-71.7
X99.612Y-63.7
X100.112Y-99.1
X100.812Y-67.2
X101.112Y-22.2
X102.012Y-67.1
X102.662Y-68.45
X102.762Y-69.95
X102.762Y-71.35
X102.762Y-72.95
X103.112Y-50.2
X104.612Y-45.2
X105.812Y-56.1
X106.1Y-70.9
X106.2Y-68.3
X106.812Y-77.3
X107.112Y-97.7
X108.2Y-68.4
X109.112Y-119.2
X110.112Y-45.2
X111.612Y-85.2
X112.212Y-61.2
X113.612Y-74.2
X114.312Y-60.2
X114.612Y-69.7
X115.112Y-72.2
X115.112Y-76.8
X115.512Y-97.7
X116.012Y-72.5
X116.012Y-76.0
X116.212Y-97.7
X116.312Y-61.9
X116.612Y-22.2
X116.912Y-97.7
X117.612Y-97.7
X117.712Y-74.6
X117.712Y-76.3
X117.862Y-80.7
X120.112Y-77.7
X120.612Y-119.7
X120.812Y-46.3
X120.912Y-55.9
X122.312Y-99.1
X124.512Y-72.7
X126.612Y-85.2
X126.612Y-90.2
X128.112Y-50.2
X128.112Y-57.7
X128.112Y-98.7
X129.112Y-35.7
X129.4Y-70.3
X130.512Y-66.5
X130.7Y-61.5
X130.712Y-54.95
X131.362Y-119.2
X131.512Y-63.5
X131.612Y-21.7
X132.012Y-78.4
X132.012Y-79.2
X132.012Y-79.9
X132.012Y-80.6
X132.012Y-95.1
X132.012Y-95.9
X132.012Y-96.7
X132.012Y-105.2
X132.312Y-65.0
X132.412Y-60.5
X132.612Y-45.2
X132.612Y-102.0
X132.812Y-95.1
X132.812Y-95.9
X132.812Y-96.7
X132.862Y-105.2
X133.112Y-25.95
X133.112Y-98.7
X133.612Y-95.1
X133.612Y-95.9
X133.612Y-96.7
X134.112Y-38.5
X135.212Y-108.6
X135.312Y-47.45
X135.312Y-48.95
X135.312Y-50.45
X135.312Y-51.95
X135.362Y-31.7
X135.362Y-33.2
X135.362Y-34.7
X135.362Y-36.2
X135.362Y-39.2
X135.412Y-53.45
X135.512Y-40.7
X135.512Y-42.2
X135.512Y-43.7
X135.712Y-107.75
X136.412Y-107.049
X137.112Y-106.5
X138.512Y-97.8
X138.612Y-25.95
X139.212Y-97.8
X139.912Y-97.8
X140.612Y-97.8
X141.112Y-45.7
X141.112Y-58.2
X141.112Y-87.5
X142.612Y-118.7
X146.712Y-100.4
X147.112Y-94.2
X148.112Y-29.7
X148.612Y-38.7
X148.612Y-49.2
X148.612Y-69.7
X148.612Y-104.2
X150.112Y-119.2
X151.712Y-110.3
X151.812Y-100.2
X151.812Y-100.9
X152.112Y-111.95
X152.512Y-100.2
X152.512Y-100.9
X152.862Y-59.7
X152.862Y-79.95
X152.912Y-110.3
X153.112Y-21.7
X153.212Y-100.2
X153.212Y-100.9
X153.612Y-27.2
X153.912Y-105.4
X154.512Y-102.1
X154.612Y-105.4
X155.312Y-105.4
X159.112Y-94.2
X160.112Y-28.7
X160.512Y-97.8
X161.212Y-97.8
X161.912Y-97.8
X162.612Y-97.8
X165.612Y-118.7
X166.512Y-100.3
X166.612Y-61.7
X167.112Y-77.2
X171.362Y-100.45
X171.612Y-31.2
T4
X79.112Y-88.2
X79.112Y-90.2
X81.112Y-88.2
X81.112Y-90.2
X83.112Y-88.2
X83.112Y-90.2
X85.112Y-88.2
X85.112Y-90.2
X87.112Y-88.2
X87.112Y-90.2
X89.112Y-88.2
X89.112Y-90.2
X91.112Y-88.2
X91.112Y-90.2
X93.112Y-88.2
X93.112Y-90.2
X95.112Y-88.2
X95.112Y-90.2
X97.112Y-88.2
X97.112Y-90.2
X99.112Y-88.2
X99.112Y-90.2
X101.112Y-88.2
X101.112Y-90.2
X103.112Y-88.2
X103.112Y-90.2
X105.112Y-88.2
X105.112Y-90.2
X107.112Y-88.2
X107.112Y-90.2
X109.112Y-88.2
X109.112Y-90.2
X111.112Y-88.2
X111.112Y-90.2
X113.112Y-88.2
X113.112Y-90.2
X115.112Y-88.2
X115.112Y-90.2
X117.112Y-88.2
X117.112Y-90.2
T6
X27.612Y-109.95
X30.112Y-109.95
X32.112Y-109.95
X34.612Y-109.95
X49.946Y-109.95
X52.446Y-109.95
X54.446Y-109.95
X56.946Y-109.95
X72.279Y-109.95
X74.779Y-109.95
X76.779Y-109.95
X79.279Y-109.95
X94.612Y-109.95
X97.112Y-109.95
X99.112Y-109.95
X101.612Y-109.95
X116.946Y-109.95
X119.446Y-109.95
X121.446Y-109.95
X123.946Y-109.95
X139.279Y-109.95
X141.779Y-109.95
X143.779Y-109.95
X146.279Y-109.95
X161.612Y-109.85
X164.112Y-109.85
X164.362Y-34.55
X166.112Y-109.85
X168.562Y-40.5
X168.612Y-109.85
X168.862Y-48.0
X169.062Y-45.85
T7
X122.542Y-32.942
X122.542Y-34.942
X125.042Y-32.942
X125.042Y-34.942
T8
X59.132Y-40.23
X59.132Y-42.77
X64.212Y-40.23
X64.212Y-42.77
X69.292Y-40.23
X69.292Y-42.77
X142.999Y-31.609
X142.999Y-34.149
X142.999Y-36.689
X142.999Y-39.229
X142.999Y-41.769
X142.999Y-44.309
X142.999Y-46.849
X142.999Y-49.389
X142.999Y-51.929
X142.999Y-54.469
X142.999Y-57.009
X142.999Y-59.549
X142.999Y-62.089
X142.999Y-64.629
X142.999Y-67.169
X142.999Y-69.709
X142.999Y-72.249
X142.999Y-74.789
X142.999Y-77.329
X142.999Y-79.869
X145.539Y-31.609
X145.539Y-34.149
X145.539Y-36.689
X145.539Y-39.229
X145.539Y-41.769
X145.539Y-44.309
X145.539Y-46.849
X145.539Y-49.389
X145.539Y-51.929
X145.539Y-54.469
X145.539Y-57.009
X145.539Y-59.549
X145.539Y-62.089
X145.539Y-64.629
X145.539Y-67.169
X145.539Y-69.709
X145.539Y-72.249
X145.539Y-74.789
X145.539Y-77.329
X145.539Y-79.869
T9
X85.567Y-26.7
X90.647Y-26.7
T10
X117.792Y-30.082
X129.792Y-30.082
T11
X144.262Y-26.75
X144.262Y-84.75
X167.262Y-26.75
X167.262Y-84.75
T3
G00X37.792Y-22.45
M15
G01X37.792Y-21.85
M16
G05
G00X37.792Y-26.88
M15
G01X37.792Y-25.78
M16
G05
G00X46.432Y-22.45
M15
G01X46.432Y-21.85
M16
G05
G00X46.432Y-26.88
M15
G01X46.432Y-25.78
M16
G05
G00X119.472Y-22.405
M15
G01X119.472Y-21.805
M16
G05
G00X119.472Y-26.835
M15
G01X119.472Y-25.735
M16
G05
G00X128.112Y-22.405
M15
G01X128.112Y-21.805
M16
G05
G00X128.112Y-26.835
M15
G01X128.112Y-25.735
M16
G05
T5
G00X24.287Y-111.525
M15
G01X24.287Y-113.375
M16
G05
G00X37.937Y-111.525
M15
G01X37.937Y-113.375
M16
G05
G00X46.621Y-111.525
M15
G01X46.621Y-113.375
M16
G05
G00X60.271Y-111.525
M15
G01X60.271Y-113.375
M16
G05
G00X68.954Y-111.525
M15
G01X68.954Y-113.375
M16
G05
G00X82.604Y-111.525
M15
G01X82.604Y-113.375
M16
G05
G00X91.287Y-111.525
M15
G01X91.287Y-113.375
M16
G05
G00X104.937Y-111.525
M15
G01X104.937Y-113.375
M16
G05
G00X113.621Y-111.525
M15
G01X113.621Y-113.375
M16
G05
G00X127.271Y-111.525
M15
G01X127.271Y-113.375
M16
G05
G00X135.954Y-111.525
M15
G01X135.954Y-113.375
M16
G05
G00X149.604Y-111.525
M15
G01X149.604Y-113.375
M16
G05
G00X158.287Y-111.425
M15
G01X158.287Y-113.275
M16
G05
G00X171.937Y-111.425
M15
G01X171.937Y-113.275
M16
G05
T0
M30
